<?xml version="1.0" encoding="UTF-8"?>
<!-- Svg Vector Icons : http://www.onlinewebfonts.com/icon -->
<!DOCTYPE svg PUBLIC "-//W3C//DTD SVG 1.1//EN" "http://www.w3.org/Graphics/SVG/1.1/DTD/svg11.dtd">
<svg version="1.1" xmlns="http://www.w3.org/2000/svg" xmlns:xlink="http://www.w3.org/1999/xlink" x="0px" y="0px" viewBox="0 0 1000 1000" enable-background="new 0 0 1000 1000" xml:space="preserve">
<metadata> Svg Vector Icons : http://www.onlinewebfonts.com/icon </metadata>
<g><g><g><path d="M420.5,565.3c53.7,0,104.9-4.7,151.9-13.1v-55.8c0-39.6,20.4-74.5,51.2-94.9c-59.9,15.2-129.1,24-203,24C193.8,425.6,10,343.8,10,242.8c0,42.1,0,70.3,0,139.7C10,483.5,193.8,565.3,420.5,565.3z"/><ellipse cx="420.5" cy="192.7" rx="410.5" ry="182.7"/><path d="M831,242.8c0,56.2-57,106.4-146.6,139.9c0.6,0,1.1-0.2,1.8-0.2h75.9c24.5,0,47.2,8,65.8,21.3c1.8-7,3-14.1,3-21.3C831,345.5,831,306.8,831,242.8z"/><path d="M382.6,754.2v-68c0-27.1,9.9-51.6,25.7-71.2C187.2,612.2,10,531.8,10,432.7c0,42.1,0,70.3,0,139.7C10,667.6,173.6,745.7,382.6,754.2z"/><path d="M572.4,876.1h-75.9c-47.8,0-88.7-29.7-105.5-71.6C178,797.8,10,719,10,622.5c0,42.1,0,70.3,0,139.7c0,101,183.8,182.7,410.5,182.7c53.7,0,104.9-4.7,151.9-13.1L572.4,876.1L572.4,876.1z"/></g><path d="M952,648.3H800.2V496.5c0-20.9-17-38-38-38h-75.9c-20.9,0-38,17-38,38v151.9H496.5c-20.9,0-38,17-38,38v75.9c0,20.9,17,38,38,38h151.9V952c0,20.9,17,38,38,38h75.9c20.9,0,38-17,38-38V800.2H952c20.9,0,38-17,38-38v-75.9C990,665.4,973,648.3,952,648.3z"/></g><g/><g/><g/><g/><g/><g/><g/><g/><g/><g/><g/><g/><g/><g/><g/></g>
</svg>