<?xml version="1.0" encoding="UTF-8"?>
<!-- Svg Vector Icons : http://www.onlinewebfonts.com/icon -->
<!DOCTYPE svg PUBLIC "-//W3C//DTD SVG 1.1//EN" "http://www.w3.org/Graphics/SVG/1.1/DTD/svg11.dtd">
<svg version="1.1" xmlns="http://www.w3.org/2000/svg" xmlns:xlink="http://www.w3.org/1999/xlink" x="0px" y="0px" viewBox="0 0 1000 1000" enable-background="new 0 0 1000 1000" xml:space="preserve">
<metadata> Svg Vector Icons : http://www.onlinewebfonts.com/icon </metadata>
<g><path d="M706.3,424.7c-156.7,0-283.7,127-283.7,283.7c0,156.7,127,283.7,283.7,283.7S990,865.1,990,708.4S863,424.7,706.3,424.7z M897.4,745.2c-10.2,8.2-22.5,12.3-36.8,12.3v-3.1H747v109c0,14.3-4.6,26.6-13.8,36.8c-9.2,10.2-21,15.3-35.3,15.3c-14.3,0-25.6-5.1-33.8-15.3c-8.2-10.2-12.3-22.5-12.3-36.8v-109h-99.7c-14.3,0-26.6-3.6-36.8-10.7c-10.2-7.2-15.3-17.9-15.3-32.2c0-14.3,5.1-26.6,15.3-36.8c10.2-10.2,22.5-15.3,36.8-15.3h99.7V553.4c0-14.3,4.1-26.6,12.3-36.8c8.2-10.2,19.4-15.3,33.8-15.3c14.3,0,26.1,5.1,35.3,15.3c9.2,10.2,13.8,22.5,13.8,36.8v105.9h113.6c14.3,0,26.6,5.1,36.8,15.3c10.2,10.2,15.3,22.5,15.3,36.8C912.7,725.8,907.6,737,897.4,745.2z"/><path d="M621.8,176.3c-31.4,0-56.8-24.7-56.8-55.2V63.2c0-30.5,25.4-55.3,56.8-55.3c31.4,0,56.8,24.7,56.8,55.3V121C678.6,151.5,653.2,176.3,621.8,176.3L621.8,176.3L621.8,176.3z"/><path d="M234.5,176.3c-31.4,0-56.8-24.7-56.8-55.2V63.2c0-30.5,25.4-55.3,56.8-55.3c31.4,0,56.8,24.7,56.8,55.3V121C291.4,151.5,265.9,176.3,234.5,176.3L234.5,176.3L234.5,176.3z"/><path d="M848.4,122.3c0-7.5-3.1-15-9.3-20.7c-6.2-5.7-14.3-8.6-22.4-8.6h-97.4v29.6c0,49-43.3,88.8-96.7,88.8c-53.4,0-96.7-39.7-96.7-88.8V93H332.4v29.6c0,49-43.3,88.8-96.7,88.8c-53.4,0-96.7-39.7-96.7-88.8V93H41.6c-8.1,0-16.2,2.9-22.3,8.6c-6.2,5.7-9.3,13.2-9.3,20.7v710.5c0,7.5,3.1,15,9.3,20.7c6.2,5.7,14.2,8.6,22.3,8.6H323v-0.3c18.9-2.3,33.5-16.9,33.5-34.6c0-19.3-17.3-35-38.6-35c-2.1,0-4.1,0.1-6,0.4H89V310.4h680.3v11.5h0.2c-0.1,0.8-0.1,1.7-0.1,2.5c0,18.7,17.7,33.8,39.5,33.8c21.8,0,39.5-15.1,39.5-33.8c0-0.8,0-1.7-0.1-2.5h0.1L848.4,122.3L848.4,122.3z"/><path d="M348.7,614.7l-128.9,142c-10.4,11.5-27.5,11.5-38,0L116,684.3c-10.4-11.5-10.4-30.3,0-41.8l4.7-5.2c10.4-11.5,27.5-11.5,38,0l23.1,25.4c9.5,10.4,18.5,20.6,18.5,20.6s9.3-9.4,19.5-20.6l86.2-95c10.4-11.5,27.5-11.5,38,0l4.7,5.2C359.1,584.4,359.1,603.2,348.7,614.7z"/><path d="M348.7,391.1l-128.9,142c-10.4,11.5-27.5,11.5-38,0L116,460.6c-10.4-11.5-10.4-30.3,0-41.8l4.7-5.2c10.4-11.5,27.5-11.5,38,0l23.1,25.4c9.5,10.4,18.5,20.5,18.5,20.5s9.3-9.4,19.5-20.5l86.2-95c10.4-11.5,27.5-11.5,38,0l4.7,5.2C359.1,360.8,359.1,379.6,348.7,391.1z"/><path d="M406.1,465.1H437c17.9-19.8,37.9-37.6,59.7-53h-90.5c-8.9,0-16.1,7.8-16.1,17.4v18.1C390,457.3,397.2,465.1,406.1,465.1z"/></g>
</svg>